<?xml version="1.0" standalone="no"?>
<!DOCTYPE svg PUBLIC "-//W3C//DTD SVG 20010904//EN"
 "http://www.w3.org/TR/2001/REC-SVG-20010904/DTD/svg10.dtd">
<svg version="1.0" xmlns="http://www.w3.org/2000/svg"
 width="1024.000000pt" height="1024.000000pt" viewBox="0 0 1024.000000 1024.000000"
 preserveAspectRatio="xMidYMid meet">

<g transform="translate(0.000000,1024.000000) scale(0.100000,-0.100000)"
fill="#000000" stroke="none">
<path d="M4995 8109 c-60 -22 -191 -69 -290 -104 -593 -211 -878 -314 -886
-322 -17 -17 11 -32 181 -90 l175 -61 3 -282 2 -282 -25 -24 c-29 -27 -32 -58
-7 -99 18 -28 17 -31 -5 -93 -27 -73 -30 -134 -8 -152 26 -21 101 -25 130 -6
33 21 33 56 -1 153 -24 68 -24 76 -10 92 9 10 16 34 16 54 0 28 -6 40 -25 53
l-25 16 0 289 c0 159 2 289 4 289 7 0 430 115 613 166 133 37 168 51 192 75
25 25 37 29 84 29 92 0 137 -58 84 -108 -31 -29 -78 -37 -131 -22 -41 11 -56
8 -297 -59 -140 -39 -303 -84 -364 -99 l-110 -29 55 -20 c159 -60 755 -263
771 -263 9 0 62 15 116 34 54 19 211 73 348 121 138 48 275 95 305 105 231 77
527 183 535 191 7 7 4 15 -7 23 -24 17 -1279 466 -1301 465 -7 0 -61 -18 -122
-40z"/>
<path d="M4378 7216 l3 -164 184 -61 c173 -56 363 -129 498 -188 l57 -26 108
46 c162 69 273 110 466 172 l176 56 0 165 0 165 -22 -7 c-13 -3 -178 -60 -367
-125 -190 -66 -351 -119 -358 -119 -14 0 -205 65 -545 184 -102 36 -190 66
-195 66 -4 0 -7 -74 -5 -164z"/>
<path d="M3375 6991 c-82 -20 -136 -72 -160 -153 -13 -45 -15 -193 -15 -1133
0 -1194 -2 -1150 62 -1212 68 -66 33 -63 833 -63 l725 0 0 -22 c0 -31 -44
-202 -70 -270 -34 -93 -51 -108 -119 -108 -138 0 -211 -33 -211 -95 0 -68 -36
-65 703 -65 579 0 668 2 681 15 37 38 26 94 -25 120 -19 10 -71 19 -132 23
l-101 7 -23 40 c-29 50 -102 295 -103 343 0 9 152 12 729 12 440 0 740 4 755
10 14 5 43 25 65 45 76 69 72 -13 69 1240 l-3 1120 -28 47 c-18 31 -44 57 -75
75 l-47 28 -468 3 -469 3 -46 -23 c-26 -13 -134 -50 -239 -83 l-193 -60 698
-5 697 -5 5 -983 c3 -540 4 -987 2 -992 -3 -7 -597 -10 -1753 -10 l-1749 0 2
993 3 992 341 3 342 2 -10 40 c-10 37 -8 52 17 113 7 16 -12 17 -326 16 -184
-1 -347 -4 -364 -8z m1801 -2257 c69 -33 85 -119 34 -178 -36 -40 -76 -52
-123 -36 -99 32 -116 159 -28 213 33 21 74 21 117 1z"/>
<path d="M4347 6950 c11 -22 14 -45 9 -76 l-6 -44 213 1 212 0 -85 29 c-47 15
-139 46 -205 68 -66 22 -128 43 -137 47 -16 6 -16 5 -1 -25z"/>
<path d="M3490 3254 l0 -186 -35 30 c-43 38 -90 52 -180 52 -90 0 -155 -29
-213 -95 -60 -68 -82 -135 -82 -250 0 -154 54 -262 160 -320 48 -26 65 -30
135 -30 70 0 87 4 134 30 29 16 60 40 68 52 23 35 33 28 33 -27 l0 -50 60 0
60 0 0 490 0 490 -70 0 -70 0 0 -186z m-82 -235 c71 -35 82 -62 82 -213 0
-123 -1 -131 -26 -163 -55 -72 -168 -95 -249 -50 -109 61 -134 286 -42 386 55
60 157 77 235 40z"/>
<path d="M4832 3386 c-158 -40 -244 -169 -212 -320 23 -109 90 -156 315 -217
104 -28 125 -37 158 -70 30 -30 37 -44 37 -76 0 -81 -62 -123 -184 -123 -91 0
-171 24 -249 73 l-57 37 -29 -58 -29 -58 31 -21 c55 -38 142 -73 222 -90 65
-14 90 -15 165 -6 180 23 270 110 270 263 -1 148 -63 203 -308 270 -133 36
-165 51 -189 87 -41 63 -11 147 64 179 73 31 233 5 315 -51 l37 -25 25 56 c14
31 26 60 26 65 0 11 -70 47 -139 70 -72 25 -201 32 -269 15z"/>
<path d="M2230 2925 l0 -465 310 0 310 0 0 65 0 65 -235 0 -235 0 0 140 0 140
195 0 196 0 -3 58 -3 57 -198 3 -198 2 3 133 3 132 228 3 227 2 0 65 0 65
-300 0 -300 0 0 -465z"/>
<path d="M7880 3240 l0 -100 -55 0 -55 0 0 -50 0 -50 49 0 48 0 5 -227 c4
-180 9 -236 22 -268 33 -80 130 -113 237 -81 81 24 82 25 68 80 -11 45 -14 47
-38 41 -72 -18 -97 -17 -124 7 l-26 23 -6 208 -6 207 90 0 91 0 0 55 0 54 -87
3 -88 3 0 95 0 95 -62 3 -63 3 0 -101z"/>
<path d="M5664 3136 c-17 -8 -47 -28 -66 -45 -20 -17 -38 -31 -41 -31 -2 0 -7
18 -11 40 l-6 40 -55 0 -55 0 0 -340 0 -340 65 0 65 0 0 231 c0 264 3 277 84
324 88 51 171 24 196 -64 5 -20 10 -138 10 -263 l0 -228 64 0 65 0 3 238 c3
231 4 238 26 267 55 70 145 94 208 56 47 -28 54 -75 54 -335 l0 -226 65 0 65
0 0 253 c0 262 -5 302 -43 358 -41 61 -80 79 -170 79 -94 0 -148 -21 -197 -77
-17 -19 -32 -34 -34 -32 -28 45 -62 80 -89 93 -43 20 -159 21 -203 2z"/>
<path d="M6740 3143 c-30 -6 -150 -59 -150 -67 0 -6 32 -89 36 -95 2 -1 28 9
59 24 38 19 78 29 125 33 111 8 157 -23 162 -109 l3 -43 -105 -12 c-186 -21
-283 -78 -309 -178 -26 -106 22 -199 122 -232 87 -29 209 0 274 65 l31 31 10
-29 c17 -48 50 -71 103 -71 72 0 79 5 79 60 0 41 -3 47 -17 44 -10 -3 -27 2
-38 10 -19 13 -20 28 -23 218 -3 169 -7 210 -22 244 -19 45 -66 85 -119 103
-33 11 -170 13 -221 4z m234 -396 c11 -85 -8 -126 -74 -161 -101 -54 -194 -33
-214 48 -12 46 10 93 56 120 28 17 143 43 199 45 25 1 27 -3 33 -52z"/>
<path d="M7580 3139 c-40 -16 -89 -58 -106 -90 -20 -39 -27 -31 -34 34 l-5 52
-57 3 -58 3 0 -341 0 -340 70 0 70 0 0 217 c0 212 0 217 25 259 30 51 107 94
171 94 l42 0 4 56 c1 31 1 58 -1 60 -8 8 -96 3 -121 -7z"/>
<path d="M3832 2878 c3 -257 4 -264 28 -313 16 -32 41 -61 68 -80 39 -27 51
-30 120 -30 64 0 87 5 134 28 31 15 69 42 83 59 14 17 28 28 31 26 2 -3 7 -28
11 -57 l6 -51 58 0 59 0 0 340 0 340 -69 0 -70 0 -3 -228 -3 -229 -29 -37
c-36 -48 -96 -75 -163 -76 -44 0 -58 5 -83 28 -42 37 -50 98 -47 345 l3 197
-69 0 -69 0 4 -262z"/>
</g>
</svg>
